<svg width="89" height="14" viewBox="0 0 89 14" fill="none" xmlns="http://www.w3.org/2000/svg">
<style>
  path {
    fill: #202833;
  }

  @media (prefers-color-scheme: dark) {
    path {
      fill: #fff;
    }
  }
</style>
<path d="M1.18 5.45452C1.18 5.91452 1.18 6.19452 1.18 6.68452C1.42739 6.2243 1.80254 5.84542 2.26028 5.59348C2.71802 5.34155 3.23883 5.22731 3.76 5.26452C4.2516 5.22187 4.74405 5.3364 5.16638 5.5916C5.58872 5.84679 5.91913 6.22948 6.11 6.68452C6.33315 6.24591 6.6762 5.87963 7.09928 5.62827C7.52235 5.3769 8.00808 5.25076 8.5 5.26452C10.44 5.26452 11.33 6.26452 11.33 8.32452V12.9445H10.08V8.41452C10.08 7.13452 9.46 6.41452 8.26 6.41452C7.98842 6.42179 7.72116 6.48432 7.47455 6.59829C7.22793 6.71225 7.00711 6.87527 6.82557 7.0774C6.64404 7.27952 6.50558 7.51651 6.41866 7.77391C6.33174 8.03131 6.29817 8.30372 6.32 8.57452V12.9445H5.07V8.60452C5.07 7.15452 4.71 6.41452 3.62 6.41452C2.11 6.41452 1.31 7.47452 1.31 9.28452V12.9445H0.06V7.11452C0.06 6.62452 0 5.90452 0 5.45452H1.18Z" fill="#202833"/>
<path d="M14.9999 2.52456C14.9999 2.76591 14.9041 2.99737 14.7334 3.16803C14.5627 3.33869 14.3313 3.43456 14.0899 3.43456C13.8486 3.43456 13.6171 3.33869 13.4465 3.16803C13.2758 2.99737 13.1799 2.76591 13.1799 2.52456C13.1799 2.28322 13.2758 2.05175 13.4465 1.8811C13.6171 1.71044 13.8486 1.61456 14.0899 1.61456C14.3313 1.61456 14.5627 1.71044 14.7334 1.8811C14.9041 2.05175 14.9999 2.28322 14.9999 2.52456ZM14.7399 12.9446H13.4899V5.45456H14.7399V12.9446Z" fill="#202833"/>
<path d="M18.26 12.9445H17V0.844543H18.25L18.26 12.9445Z" fill="#202833"/>
<path d="M20.3799 6.51452V5.45452H21.9999V3.32452H23.2399V5.45452H25.4499V6.51452H23.2599V10.5145C23.2599 11.7145 23.6599 11.9845 24.3799 11.9845C24.7656 11.9899 25.1467 11.9006 25.4899 11.7245L25.5399 12.8445C25.0748 13.0265 24.5793 13.1181 24.0799 13.1145C22.6399 13.1145 22.0199 12.5445 22.0199 10.6845V6.51452H20.3799Z" fill="#202833"/>
<path d="M35.2199 9.20456C35.2357 9.73091 35.1424 10.2548 34.9461 10.7434C34.7497 11.232 34.4544 11.6747 34.0788 12.0438C33.7032 12.4128 33.2553 12.7002 32.7634 12.8879C32.2714 13.0756 31.7459 13.1596 31.2199 13.1346C30.6939 13.1596 30.1685 13.0756 29.6765 12.8879C29.1845 12.7002 28.7366 12.4128 28.361 12.0438C27.9854 11.6747 27.6901 11.232 27.4938 10.7434C27.2974 10.2548 27.2042 9.73091 27.2199 9.20456C27.2012 8.677 27.2924 8.15131 27.4876 7.66083C27.6828 7.17035 27.9778 6.72579 28.3539 6.35535C28.73 5.9849 29.1789 5.69665 29.6723 5.50888C30.1657 5.3211 30.6927 5.23791 31.2199 5.26457C31.7471 5.23791 32.2741 5.3211 32.7675 5.50888C33.2609 5.69665 33.7099 5.9849 34.0859 6.35535C34.462 6.72579 34.757 7.17035 34.9522 7.66083C35.1475 8.15131 35.2386 8.677 35.2199 9.20456ZM31.2199 11.9846C31.5808 11.9909 31.9391 11.9222 32.2721 11.783C32.6051 11.6438 32.9056 11.4371 33.1547 11.1758C33.4037 10.9146 33.5959 10.6045 33.719 10.2652C33.8421 9.92588 33.8935 9.56474 33.8699 9.20456C33.8922 8.8422 33.84 8.47912 33.7166 8.13767C33.5933 7.79623 33.4013 7.48365 33.1526 7.21919C32.9039 6.95473 32.6037 6.74398 32.2704 6.59992C31.9372 6.45586 31.578 6.38155 31.2149 6.38155C30.8519 6.38155 30.4927 6.45586 30.1594 6.59992C29.8262 6.74398 29.526 6.95473 29.2772 7.21919C29.0285 7.48365 28.8366 7.79623 28.7132 8.13767C28.5898 8.47912 28.5377 8.8422 28.5599 9.20456C28.5378 9.56524 28.5905 9.9266 28.7148 10.2659C28.8391 10.6052 29.0322 10.9152 29.282 11.1763C29.5318 11.4374 29.8329 11.6439 30.1664 11.783C30.4999 11.9221 30.8586 11.9908 31.2199 11.9846Z" fill="#202833"/>
<path d="M38.2701 5.45453C38.2701 5.91453 38.2701 6.19453 38.2701 6.68453C38.5118 6.2395 38.8729 5.87079 39.3129 5.61991C39.7528 5.36903 40.254 5.24595 40.7601 5.26453C41.156 5.23087 41.5544 5.28667 41.9258 5.42779C42.2972 5.56892 42.6322 5.79175 42.9058 6.07982C43.1795 6.36788 43.3849 6.7138 43.5068 7.09197C43.6287 7.47014 43.664 7.87088 43.6101 8.26453V12.9445H42.4301V8.40453C42.4301 7.24453 41.9201 6.40453 40.7201 6.40453C39.1801 6.40453 38.4001 7.47453 38.4001 9.27453V12.9445H37.1501V7.11453C37.1501 6.62453 37.0901 5.90453 37.0901 5.45453H38.2701Z" fill="#202833"/>
<path d="M50.0599 9.20454C50.0373 8.68109 50.1237 8.15865 50.3136 7.67036C50.5036 7.18208 50.793 6.73862 51.1635 6.36814C51.534 5.99766 51.9775 5.70824 52.4658 5.51826C52.954 5.32827 53.4765 5.24188 53.9999 5.26454C54.5153 5.26408 55.0243 5.37876 55.4897 5.60022C55.9551 5.82167 56.3652 6.14431 56.6899 6.54454V0.844543H57.9999V12.9445H56.7199V11.6145C56.4183 12.101 55.9925 12.4983 55.4862 12.7655C54.98 13.0326 54.4118 13.16 53.8399 13.1345C53.3311 13.1335 52.8276 13.0301 52.3596 12.8303C51.8916 12.6306 51.4686 12.3386 51.1158 11.9718C50.763 11.6051 50.4877 11.1711 50.3063 10.6956C50.1249 10.2202 50.0411 9.71307 50.0599 9.20454ZM54.0599 11.9845C54.4217 11.9922 54.781 11.9247 55.1152 11.7861C55.4494 11.6475 55.7512 11.4409 56.0013 11.1795C56.2514 10.9181 56.4445 10.6076 56.5682 10.2676C56.6919 9.92757 56.7436 9.56557 56.7199 9.20454C56.7422 8.84218 56.69 8.4791 56.5667 8.13765C56.4433 7.79621 56.2513 7.48363 56.0026 7.21917C55.7539 6.95471 55.4537 6.74396 55.1204 6.5999C54.7872 6.45584 54.428 6.38153 54.0649 6.38153C53.7019 6.38153 53.3427 6.45584 53.0094 6.5999C52.6762 6.74396 52.376 6.95471 52.1273 7.21917C51.8785 7.48363 51.6866 7.79621 51.5632 8.13765C51.4398 8.4791 51.3877 8.84218 51.4099 9.20454C51.3864 9.56471 51.4378 9.92586 51.5609 10.2652C51.684 10.6045 51.8761 10.9145 52.1252 11.1758C52.3742 11.437 52.6747 11.6438 53.0078 11.783C53.3408 11.9222 53.699 11.9908 54.0599 11.9845Z" fill="#202833"/>
<path d="M59.8401 10.9146C59.8401 9.18457 61.1401 8.28457 64.4601 8.28457H65.0001V8.07457C65.0001 6.97457 64.3101 6.41457 63.1401 6.41457C62.3503 6.41622 61.5887 6.70805 61.0001 7.23457L60.2101 6.41457C61.0193 5.65067 62.0976 5.23735 63.2101 5.26457C65.3701 5.26457 66.3501 6.26457 66.3501 8.35457V11.7146C66.3578 12.1266 66.3946 12.5377 66.4601 12.9446H65.2001C65.1251 12.583 65.0982 12.2132 65.1201 11.8446C64.8556 12.2567 64.4894 12.5938 64.0568 12.8233C63.6241 13.0527 63.1397 13.1668 62.6501 13.1546C61.0001 13.1346 59.8401 12.2746 59.8401 10.9146ZM61.1801 10.7846C61.1801 11.6346 61.7801 12.0846 62.8301 12.0846C63.1407 12.0888 63.4486 12.026 63.7328 11.9004C64.0169 11.7749 64.2706 11.5895 64.4766 11.3569C64.6826 11.1244 64.836 10.8501 64.9263 10.5529C65.0167 10.2556 65.0418 9.94242 65.0001 9.63457V9.34457H63.6601C62.1901 9.34457 61.1801 9.84457 61.1801 10.7846Z" fill="#202833"/>
<path d="M73.8101 12.9445L71.4701 7.07453L69.2201 12.9445H67.8701L70.8701 5.45453H72.2501L75.3101 12.9445H73.8101Z" fill="#202833"/>
<path d="M78.9001 2.52453C78.8764 2.75071 78.7698 2.9601 78.6008 3.11231C78.4318 3.26452 78.2125 3.34874 77.9851 3.34874C77.7577 3.34874 77.5383 3.26452 77.3693 3.11231C77.2004 2.9601 77.0937 2.75071 77.0701 2.52453C77.0937 2.29835 77.2004 2.08896 77.3693 1.93675C77.5383 1.78455 77.7577 1.70032 77.9851 1.70032C78.2125 1.70032 78.4318 1.78455 78.6008 1.93675C78.7698 2.08896 78.8764 2.29835 78.9001 2.52453ZM78.6101 12.9445H77.3601V5.45453H78.6101V12.9445Z" fill="#202833"/>
<path d="M80.6501 9.20454C80.6289 8.68148 80.7164 8.1597 80.9069 7.67211C81.0974 7.18452 81.3869 6.74168 81.757 6.37152C82.1272 6.00135 82.57 5.71188 83.0576 5.52136C83.5452 5.33084 84.067 5.2434 84.5901 5.26454C85.1055 5.26408 85.6145 5.37876 86.0799 5.60022C86.5453 5.82167 86.9553 6.14431 87.2801 6.54454V0.844543H88.5301V12.9445H87.3101V11.6145C87.0084 12.101 86.5826 12.4983 86.0764 12.7655C85.5702 13.0326 85.0019 13.16 84.4301 13.1345C83.9212 13.1335 83.4177 13.0301 82.9497 12.8303C82.4817 12.6306 82.0587 12.3386 81.7059 11.9718C81.3532 11.6051 81.0779 11.1711 80.8965 10.6956C80.7151 10.2202 80.6313 9.71307 80.6501 9.20454ZM84.6501 11.9845C85.011 11.9908 85.3692 11.9222 85.7022 11.783C86.0353 11.6438 86.3358 11.437 86.5848 11.1758C86.8339 10.9145 87.026 10.6045 87.1491 10.2652C87.2722 9.92586 87.3236 9.56471 87.3001 9.20454C87.3223 8.84218 87.2701 8.4791 87.1468 8.13765C87.0234 7.79621 86.8315 7.48363 86.5827 7.21917C86.334 6.95471 86.0338 6.74396 85.7006 6.5999C85.3673 6.45584 85.0081 6.38153 84.6451 6.38153C84.282 6.38153 83.9228 6.45584 83.5896 6.5999C83.2563 6.74396 82.9561 6.95471 82.7074 7.21917C82.4587 7.48363 82.2667 7.79621 82.1433 8.13765C82.02 8.4791 81.9678 8.84218 81.9901 9.20454C81.9679 9.56608 82.0209 9.92829 82.1457 10.2683C82.2706 10.6083 82.4646 10.9187 82.7155 11.18C82.9664 11.4412 83.2688 11.6476 83.6035 11.7861C83.9382 11.9246 84.2979 11.9921 84.6601 11.9845H84.6501Z" fill="#202833"/>
</svg>
