<svg width="24" height="24" viewBox="0 0 24 24" fill="none" xmlns="http://www.w3.org/2000/svg">
<path d="M0 8C0 3.58172 3.58172 0 8 0H16C20.4183 0 24 3.58172 24 8V16C24 20.4183 20.4183 24 16 24H8C3.58172 24 0 20.4183 0 16V8Z" fill="#202833"/>
<path d="M5.67206 17V16.152C5.98139 16.152 6.20006 16.088 6.32806 15.96C6.45606 15.8214 6.53606 15.6294 6.56806 15.384C6.60006 15.1387 6.61606 14.8614 6.61606 14.552V11.544C6.61606 11.352 6.62139 11.1494 6.63206 10.936C6.64273 10.7227 6.65873 10.504 6.68006 10.28C6.49873 10.2907 6.30139 10.3014 6.08806 10.312C5.87473 10.3227 5.69873 10.3334 5.56006 10.344V9.30402C6.04006 9.30402 6.43473 9.28269 6.74406 9.24002C7.05339 9.18669 7.29339 9.12269 7.46406 9.04802C7.63473 8.97335 7.75739 8.90402 7.83206 8.84002H8.50406C8.52539 8.94669 8.53606 9.08002 8.53606 9.24002C8.54673 9.38935 8.55739 9.52802 8.56806 9.65602C8.92006 9.37869 9.30406 9.16002 9.72006 9.00002C10.1361 8.82935 10.5414 8.74402 10.9361 8.74402C11.4374 8.74402 11.8534 8.83469 12.1841 9.01602C12.5254 9.19735 12.7921 9.45869 12.9841 9.80002C13.3574 9.49069 13.7787 9.24002 14.2481 9.04802C14.7174 8.84535 15.1707 8.74402 15.6081 8.74402C16.4934 8.74402 17.1547 9.00535 17.5921 9.52802C18.0401 10.04 18.2587 10.9147 18.2481 12.152V14.712C18.2481 14.8827 18.2427 15.0907 18.2321 15.336C18.2214 15.5707 18.2054 15.8 18.1841 16.024C18.3547 16.0027 18.5361 15.992 18.7281 15.992C18.9201 15.9814 19.0801 15.976 19.2081 15.976V17H15.4161V16.152C15.6934 16.152 15.8907 16.088 16.0081 15.96C16.1254 15.8214 16.1947 15.6294 16.2161 15.384C16.2481 15.1387 16.2641 14.8614 16.2641 14.552V12.168C16.2641 11.4 16.1414 10.8507 15.8961 10.52C15.6507 10.1894 15.3041 10.024 14.8561 10.024C14.5574 10.0134 14.2694 10.072 13.9921 10.2C13.7254 10.3174 13.4907 10.4614 13.2881 10.632C13.3414 10.8347 13.3787 11.0534 13.4001 11.288C13.4214 11.5227 13.4321 11.7734 13.4321 12.04C13.4321 12.488 13.4321 12.936 13.4321 13.384C13.4321 13.8214 13.4267 14.264 13.4161 14.712C13.4161 14.8827 13.4107 15.0907 13.4001 15.336C13.4001 15.5707 13.3841 15.8 13.3521 16.024C13.5227 16.0027 13.7041 15.992 13.8961 15.992C14.0881 15.9814 14.2534 15.976 14.3921 15.976V17H10.5521V16.152C10.8401 16.152 11.0427 16.088 11.1601 15.96C11.2881 15.8214 11.3681 15.6294 11.4001 15.384C11.4321 15.1387 11.4481 14.8614 11.4481 14.552V12.136C11.4481 11.368 11.3307 10.824 11.0961 10.504C10.8721 10.1734 10.5361 10.0027 10.0881 9.99202C9.80006 9.99202 9.52273 10.056 9.25606 10.184C9.00006 10.312 8.77606 10.4667 8.58406 10.648C8.58406 10.7867 8.58406 10.9254 8.58406 11.064C8.58406 11.192 8.58406 11.3254 8.58406 11.464V14.712C8.58406 14.8827 8.57873 15.0907 8.56806 15.336C8.56806 15.5707 8.55206 15.8 8.52006 16.024C8.69073 16.0027 8.86139 15.992 9.03206 15.992C9.21339 15.9814 9.36806 15.976 9.49606 15.976V17H5.67206Z" fill="white"/>
</svg>
