<svg width="16" height="16" viewBox="0 0 16 16" fill="none"
  xmlns="http://www.w3.org/2000/svg">

  <style>
    path {
    fill: #515C6E;
    }

    @media (prefers-color-scheme: dark) {
    path {
    fill: #D9D9D9;
    }
    }
  </style>
  <g mask="url(#mask0_338_278)">
    <path d="M3.53842 13.6668C3.20164 13.6668 2.91659 13.5502 2.68325 13.3168C2.44992 13.0835 2.33325 12.7984 2.33325 12.4617V3.53866C2.33325 3.20188 2.44992 2.91683 2.68325 2.6835C2.91659 2.45016 3.20164 2.3335 3.53842 2.3335H7.24342C7.38531 2.3335 7.50414 2.38138 7.59992 2.47716C7.69559 2.57283 7.74342 2.69161 7.74342 2.8335C7.74342 2.97538 7.69559 3.09416 7.59992 3.18983C7.50414 3.28561 7.38531 3.3335 7.24342 3.3335H3.53842C3.48709 3.3335 3.44009 3.35488 3.39742 3.39766C3.35464 3.44033 3.33325 3.48733 3.33325 3.53866V12.4617C3.33325 12.513 3.35464 12.56 3.39742 12.6027C3.44009 12.6454 3.48709 12.6668 3.53842 12.6668H12.4614C12.5128 12.6668 12.5598 12.6454 12.6024 12.6027C12.6452 12.56 12.6666 12.513 12.6666 12.4617V8.75666C12.6666 8.61477 12.7145 8.49594 12.8103 8.40016C12.9059 8.3045 13.0247 8.25666 13.1666 8.25666C13.3085 8.25666 13.4273 8.3045 13.5229 8.40016C13.6187 8.49594 13.6666 8.61477 13.6666 8.75666V12.4617C13.6666 12.7984 13.5499 13.0835 13.3166 13.3168C13.0833 13.5502 12.7982 13.6668 12.4614 13.6668H3.53842ZM12.6666 4.036L6.83075 9.872C6.73842 9.96422 6.62236 10.0114 6.48258 10.0137C6.34292 10.0158 6.22475 9.96855 6.12809 9.872C6.03153 9.77533 5.98325 9.65822 5.98325 9.52066C5.98325 9.38311 6.03153 9.266 6.12809 9.16933L11.9641 3.3335H9.83325C9.69136 3.3335 9.57258 3.28561 9.47692 3.18983C9.38114 3.09416 9.33325 2.97538 9.33325 2.8335C9.33325 2.69161 9.38114 2.57283 9.47692 2.47716C9.57258 2.38138 9.69136 2.3335 9.83325 2.3335H13.0639C13.2358 2.3335 13.3792 2.391 13.4941 2.506C13.6091 2.62088 13.6666 2.76427 13.6666 2.93616V6.16683C13.6666 6.30872 13.6187 6.4275 13.5229 6.52316C13.4273 6.61894 13.3085 6.66683 13.1666 6.66683C13.0247 6.66683 12.9059 6.61894 12.8103 6.52316C12.7145 6.4275 12.6666 6.30872 12.6666 6.16683V4.036Z" />
  </g>
</svg>
