<svg width="24" height="24" viewBox="0 0 24 24" fill="none" xmlns="http://www.w3.org/2000/svg">
<rect width="24" height="24" rx="8" fill="#E6E6E6"/>
<mask id="mask0_395_467" style="mask-type:alpha" maskUnits="userSpaceOnUse" x="3" y="3" width="18" height="18">
<rect x="3" y="3" width="18" height="18" fill="#D9D9D9"/>
</mask>
<g mask="url(#mask0_395_467)">
<path d="M12.0215 18.375C10.2447 18.375 8.73798 17.7567 7.50148 16.5202C6.26498 15.2836 5.64673 13.7768 5.64673 12C5.64673 10.5202 6.1046 9.20485 7.02035 8.05385C7.93623 6.90285 9.15617 6.16103 10.6802 5.82841C10.8379 5.78891 10.9769 5.79272 11.097 5.83985C11.2172 5.88697 11.3149 5.95716 11.3899 6.05041C11.4649 6.14378 11.5091 6.25703 11.5226 6.39016C11.536 6.52328 11.5047 6.65622 11.4289 6.78897C11.274 7.07072 11.159 7.36341 11.084 7.66703C11.009 7.97066 10.9715 8.28997 10.9715 8.62497C10.9715 9.8541 11.4018 10.8989 12.2623 11.7594C13.1227 12.6198 14.1674 13.05 15.3965 13.05C15.7649 13.05 16.1169 13.0033 16.4524 12.9101C16.788 12.8168 17.0817 12.7087 17.3336 12.5855C17.4567 12.5318 17.5769 12.5128 17.6942 12.5285C17.8115 12.5444 17.9117 12.5836 17.9945 12.6461C18.0867 12.7086 18.155 12.794 18.1997 12.9022C18.2444 13.0103 18.2495 13.1375 18.2149 13.2836C17.9485 14.7586 17.2309 15.9759 16.0622 16.9355C14.8934 17.8952 13.5465 18.375 12.0215 18.375ZM12.0215 17.25C13.1215 17.25 14.109 16.9468 14.984 16.3406C15.859 15.7343 16.4965 14.9437 16.8965 13.9687C16.6465 14.0312 16.3965 14.0812 16.1465 14.1187C15.8965 14.1562 15.6465 14.175 15.3965 14.175C13.859 14.175 12.5497 13.6343 11.4684 12.5531C10.3872 11.4718 9.84654 10.1625 9.84654 8.62497C9.84654 8.37497 9.86529 8.12497 9.90279 7.87497C9.94029 7.62497 9.99029 7.37497 10.0528 7.12497C9.07779 7.52497 8.28717 8.16247 7.68092 9.03747C7.07467 9.91247 6.77154 10.9 6.77154 12C6.77154 13.45 7.28404 14.6875 8.30904 15.7125C9.33404 16.7375 10.5715 17.25 12.0215 17.25Z" fill="#303947"/>
</g>
</svg>
