<svg width="24" height="24" viewBox="0 0 24 24" fill="none" xmlns="http://www.w3.org/2000/svg">
<rect width="24" height="24" rx="8" fill="#E6E6E6"/>
<mask id="mask0_310_846" style="mask-type:alpha" maskUnits="userSpaceOnUse" x="3" y="3" width="18" height="18">
<rect x="3" y="3" width="18" height="18" fill="#D9D9D9"/>
</mask>
<g mask="url(#mask0_310_846)">
<path d="M12 14.25C12.625 14.25 13.1562 14.0312 13.5938 13.5938C14.0312 13.1562 14.25 12.625 14.25 12C14.25 11.375 14.0312 10.8438 13.5938 10.4062C13.1562 9.96875 12.625 9.75 12 9.75C11.375 9.75 10.8438 9.96875 10.4062 10.4062C9.96875 10.8438 9.75 11.375 9.75 12C9.75 12.625 9.96875 13.1562 10.4062 13.5938C10.8438 14.0312 11.375 14.25 12 14.25ZM12 15.375C11.0635 15.375 10.2669 15.0466 9.61013 14.3899C8.95338 13.7331 8.625 12.9365 8.625 12C8.625 11.0635 8.95338 10.2669 9.61013 9.61012C10.2669 8.95337 11.0635 8.625 12 8.625C12.9365 8.625 13.7331 8.95337 14.3899 9.61012C15.0466 10.2669 15.375 11.0635 15.375 12C15.375 12.9365 15.0466 13.7331 14.3899 14.3899C13.7331 15.0466 12.9365 15.375 12 15.375ZM4.5 12.5625C4.34062 12.5625 4.20706 12.5086 4.09931 12.4007C3.99144 12.2928 3.9375 12.1592 3.9375 11.9998C3.9375 11.8403 3.99144 11.7067 4.09931 11.5991C4.20706 11.4914 4.34062 11.4375 4.5 11.4375H6.1875C6.34687 11.4375 6.4805 11.4914 6.58838 11.5993C6.69613 11.7072 6.75 11.8408 6.75 12.0002C6.75 12.1597 6.69613 12.2933 6.58838 12.4009C6.4805 12.5086 6.34687 12.5625 6.1875 12.5625H4.5ZM17.8125 12.5625C17.6531 12.5625 17.5195 12.5086 17.4116 12.4007C17.3039 12.2928 17.25 12.1592 17.25 11.9998C17.25 11.8403 17.3039 11.7067 17.4116 11.5991C17.5195 11.4914 17.6531 11.4375 17.8125 11.4375H19.5C19.6594 11.4375 19.7929 11.4914 19.9007 11.5993C20.0086 11.7072 20.0625 11.8408 20.0625 12.0002C20.0625 12.1597 20.0086 12.2933 19.9007 12.4009C19.7929 12.5086 19.6594 12.5625 19.5 12.5625H17.8125ZM11.9998 6.75C11.8403 6.75 11.7067 6.69613 11.5991 6.58838C11.4914 6.4805 11.4375 6.34687 11.4375 6.1875V4.5C11.4375 4.34062 11.4914 4.20706 11.5993 4.09931C11.7072 3.99144 11.8408 3.9375 12.0002 3.9375C12.1597 3.9375 12.2933 3.99144 12.4009 4.09931C12.5086 4.20706 12.5625 4.34062 12.5625 4.5V6.1875C12.5625 6.34687 12.5086 6.4805 12.4007 6.58838C12.2928 6.69613 12.1592 6.75 11.9998 6.75ZM11.9998 20.0625C11.8403 20.0625 11.7067 20.0086 11.5991 19.9007C11.4914 19.7929 11.4375 19.6594 11.4375 19.5V17.8125C11.4375 17.6531 11.4914 17.5195 11.5993 17.4116C11.7072 17.3039 11.8408 17.25 12.0002 17.25C12.1597 17.25 12.2933 17.3039 12.4009 17.4116C12.5086 17.5195 12.5625 17.6531 12.5625 17.8125V19.5C12.5625 19.6594 12.5086 19.7929 12.4007 19.9007C12.2928 20.0086 12.1592 20.0625 11.9998 20.0625ZM7.50431 8.28038L6.561 7.36294C6.4495 7.25906 6.39569 7.12856 6.39956 6.97144C6.40344 6.81419 6.458 6.67737 6.56325 6.561C6.67812 6.44475 6.813 6.38662 6.96788 6.38662C7.12263 6.38662 7.25431 6.44475 7.36294 6.561L8.2875 7.49719C8.39613 7.61344 8.45044 7.74512 8.45044 7.89225C8.45044 8.03937 8.39731 8.17112 8.29106 8.2875C8.18481 8.40388 8.05625 8.45894 7.90538 8.45269C7.75438 8.44644 7.62069 8.389 7.50431 8.28038ZM16.6371 17.439L15.7125 16.5028C15.6039 16.3866 15.5496 16.2529 15.5496 16.1019C15.5496 15.9509 15.6039 15.8211 15.7125 15.7125C15.814 15.5961 15.9408 15.5411 16.0929 15.5473C16.2451 15.5536 16.3793 15.611 16.4957 15.7196L17.439 16.6371C17.5505 16.7409 17.6043 16.8714 17.6004 17.0286C17.5966 17.1858 17.542 17.3226 17.4368 17.439C17.3219 17.5553 17.187 17.6134 17.0321 17.6134C16.8774 17.6134 16.7457 17.5553 16.6371 17.439ZM15.7125 8.29106C15.5961 8.18481 15.5411 8.05625 15.5473 7.90538C15.5536 7.75438 15.611 7.62069 15.7196 7.50431L16.6371 6.561C16.7409 6.4495 16.8714 6.39569 17.0286 6.39956C17.1858 6.40344 17.3226 6.458 17.439 6.56325C17.5553 6.67812 17.6134 6.813 17.6134 6.96788C17.6134 7.12263 17.5553 7.25431 17.439 7.36294L16.5028 8.2875C16.3866 8.39613 16.2549 8.45044 16.1078 8.45044C15.9606 8.45044 15.8289 8.39731 15.7125 8.29106ZM6.561 17.4405C6.44475 17.3231 6.38662 17.187 6.38662 17.0321C6.38662 16.8774 6.44475 16.7457 6.561 16.6371L7.49719 15.7125C7.61344 15.6039 7.74706 15.5496 7.89806 15.5496C8.04906 15.5496 8.17887 15.6039 8.2875 15.7125C8.399 15.814 8.45163 15.9408 8.44538 16.0929C8.43913 16.2451 8.38413 16.3793 8.28038 16.4957L7.36294 17.439C7.25431 17.5553 7.12263 17.6115 6.96788 17.6078C6.813 17.6039 6.67737 17.5481 6.561 17.4405Z" fill="#202833"/>
</g>
</svg>
