<svg width="32" height="32" viewBox="0 0 32 32" fill="none" xmlns="http://www.w3.org/2000/svg">
  <style>
    rect {
    fill: #202833;
    }

    #letter {
    fill: #F89B13;
    }

    @media (prefers-color-scheme: dark) {
    rect {
    fill: #202833;
    }

    #letter {
    fill: #F89B13;
    }
    }
  </style>
  <rect width="32" height="32" rx="4" fill="#202833" />
  <path id="letter"
    d="M6 25.8106V6.45454H9.97727V11.2273L9.29545 10.8485C9.48485 9.33333 9.93939 8.14646 10.6591 7.28788C11.3914 6.42929 12.3131 6 13.4242 6C14.4091 6 15.1919 6.29672 15.7727 6.89015C16.3535 7.48358 16.7576 8.12121 16.9848 8.80303C17.4268 8.09596 18.0013 7.45202 18.7083 6.87121C19.428 6.2904 20.3182 6 21.3788 6C22.8939 6 24.0429 6.54293 24.8258 7.62879C25.6086 8.71465 26 10.6212 26 13.3485V25.8106H22.0227V13.9924C22.0227 12.6667 21.9028 11.7008 21.6629 11.0947C21.423 10.476 20.9495 10.1667 20.2424 10.1667C19.8005 10.1667 19.4154 10.3182 19.0871 10.6212C18.7715 10.9242 18.5253 11.3662 18.3485 11.947C18.1717 12.5152 18.0833 13.2096 18.0833 14.0303V25.8106H14.1061V13.8788C14.1061 13.096 14.0429 12.4268 13.9167 11.8712C13.7904 11.3157 13.5947 10.8927 13.3295 10.6023C13.0644 10.3119 12.7172 10.1667 12.2879 10.1667C11.8207 10.1667 11.4104 10.3182 11.0568 10.6212C10.7159 10.9242 10.4508 11.3662 10.2614 11.947C10.072 12.5152 9.97727 13.2096 9.97727 14.0303V25.8106H6Z"
    fill="#F89B13" />
</svg>