<svg width="16" height="16" viewBox="0 0 16 16" fill="none" xmlns="http://www.w3.org/2000/svg">
  <style>
    path {
    fill: #1C1B1F;
    }

    @media (prefers-color-scheme: dark) {
    path {
    fill: #D9D9D9;
    }
    }
  </style>
  <mask id="mask0_55_799" style="mask-type:alpha" maskUnits="userSpaceOnUse" x="0" y="0" width="16"
    height="16">
    <rect width="16" height="16" fill="#D9D9D9" />
  </mask>
  <g mask="url(#mask0_55_799)">
    <path
      d="M6.12306 7.99998L11.1449 13.0218C11.2773 13.1543 11.3419 13.3102 11.3384 13.4897C11.335 13.6692 11.2671 13.8252 11.1346 13.9577C11.0021 14.0901 10.8461 14.1564 10.6667 14.1564C10.4872 14.1564 10.3312 14.0901 10.1987 13.9577L5.08463 8.85381C4.9641 8.7333 4.87479 8.59826 4.81668 8.4487C4.75855 8.29912 4.72949 8.14955 4.72949 7.99998C4.72949 7.85041 4.75855 7.70084 4.81668 7.55126C4.87479 7.4017 4.9641 7.26666 5.08463 7.14615L10.1987 2.03205C10.3312 1.89957 10.4889 1.83504 10.6718 1.83845C10.8547 1.84187 11.0124 1.90982 11.1449 2.0423C11.2773 2.17477 11.3436 2.33075 11.3436 2.51023C11.3436 2.68972 11.2773 2.8457 11.1449 2.97818L6.12306 7.99998Z" />
  </g>
</svg>