<svg width="24" height="24" viewBox="0 0 24 24" fill="none" xmlns="http://www.w3.org/2000/svg">
<path d="M12.73 11.4728V11.4402C12.7233 11.4512 12.7161 11.4622 12.7089 11.4728H12.73Z" fill="#28313E"/>
<path d="M20.8555 1.97571H3.02471C2.17127 1.97571 1.47913 2.65135 1.47913 3.48404V21.5235C1.47913 22.3558 2.17127 23.0314 3.02471 23.0314H20.8555C21.7102 23.0314 22.4023 22.3554 22.4023 21.5235V3.48404C22.4023 2.65092 21.7098 1.97571 20.8555 1.97571ZM7.82107 19.602H4.66089V10.0944H7.82107V19.602ZM6.2412 8.7956H6.22003C5.16 8.7956 4.4742 8.06535 4.4742 7.15307C4.4742 6.22046 5.18117 5.51054 6.26194 5.51054C7.34313 5.51054 8.00819 6.22046 8.02935 7.15307C8.02935 8.06535 7.34271 8.7956 6.2412 8.7956ZM19.2168 19.602H16.0566V14.5144C16.0566 13.2368 15.5994 12.3647 14.456 12.3647C13.5831 12.3647 13.0632 12.9527 12.8342 13.5208C12.7508 13.7236 12.7305 14.0072 12.7305 14.2917V19.6016H9.57028C9.57028 19.6016 9.61177 10.9851 9.57028 10.094H12.7305V11.4397C13.1504 10.792 13.9014 9.86959 15.5791 9.86959C17.6581 9.86959 19.2172 11.2289 19.2172 14.1495L19.2168 19.602Z" fill="#28313E"/>
</svg>
