<svg width="150" height="24" viewBox="0 0 150 24" fill="none" xmlns="http://www.w3.org/2000/svg">
<path d="M80.256 24L77.9833 1.84127L149.179 0L147.333 22.7692L80.256 24Z" fill="#F89B13"/>
<path d="M0 19.0721V7.75144H2.32615V10.5428L1.92738 10.3213C2.03815 9.43513 2.304 8.74098 2.72492 8.23883C3.15323 7.73667 3.69231 7.4856 4.34215 7.4856C4.91815 7.4856 5.376 7.65913 5.71569 8.00621C6.05538 8.35329 6.29169 8.72621 6.42462 9.12498C6.68308 8.71144 7.01908 8.33483 7.43262 7.99513C7.85354 7.65544 8.37415 7.4856 8.99446 7.4856C9.88062 7.4856 10.5526 7.80313 11.0105 8.43821C11.4683 9.07329 11.6972 10.1884 11.6972 11.7834V19.0721H9.37108V12.1601C9.37108 11.3847 9.30092 10.8197 9.16062 10.4653C9.02031 10.1034 8.74338 9.92252 8.32985 9.92252C8.07139 9.92252 7.84615 10.0111 7.65415 10.1884C7.46954 10.3656 7.32554 10.6241 7.22215 10.9637C7.11877 11.2961 7.06708 11.7022 7.06708 12.1822V19.0721H4.74092V12.0936C4.74092 11.6357 4.704 11.2444 4.63015 10.9194C4.55631 10.5945 4.44185 10.3471 4.28677 10.1773C4.13169 10.0074 3.92862 9.92252 3.67754 9.92252C3.40431 9.92252 3.16431 10.0111 2.95754 10.1884C2.75815 10.3656 2.60308 10.6241 2.49231 10.9637C2.38154 11.2961 2.32615 11.7022 2.32615 12.1822V19.0721H0Z" fill="#202833"/>
<path d="M18.213 19.0719V7.75131H20.7607V19.0719H18.213ZM15.0894 19.0719V16.8344H23.8844V19.0719H15.0894ZM15.0894 9.98885V7.75131H19.8746V9.98885H15.0894ZM19.4758 6.17839C19.0549 6.17839 18.6967 6.0307 18.4014 5.73531C18.1134 5.43254 17.9694 5.0707 17.9694 4.64977C17.9694 4.22885 18.1134 3.87439 18.4014 3.58639C18.6967 3.291 19.0549 3.14331 19.4758 3.14331C19.9115 3.14331 20.2734 3.291 20.5614 3.58639C20.8567 3.87439 21.0044 4.22885 21.0044 4.64977C21.0044 5.0707 20.8567 5.43254 20.5614 5.73531C20.2734 6.0307 19.9115 6.17839 19.4758 6.17839Z" fill="#202833"/>
<path d="M31.6408 19.072V3.0769H34.1885V19.072H31.6408ZM28.3399 19.072V16.8344H37.4894V19.072H28.3399ZM29.0045 5.31444L27.8303 3.0769H34.1885V5.31444H29.0045Z" fill="#202833"/>
<path d="M47.5051 19.3378C46.3235 19.3378 45.4743 19.072 44.9574 18.5403C44.4404 18.0012 44.182 17.2406 44.182 16.2584V9.98891H41.8115V7.75137H44.182V4.29537L46.7297 3.0769V7.75137H50.5844V9.98891H46.7297V15.7711C46.7297 16.0517 46.7814 16.2917 46.8848 16.4911C46.9955 16.6831 47.1654 16.8308 47.3943 16.9341C47.6306 17.0301 47.9408 17.0781 48.3248 17.0781C48.7014 17.0781 49.0448 17.0301 49.3549 16.9341C49.6724 16.8308 49.9789 16.7015 50.2743 16.5464L49.9641 18.8283C49.6466 18.9908 49.2884 19.1163 48.8897 19.2049C48.4909 19.2935 48.0294 19.3378 47.5051 19.3378Z" fill="#202833"/>
<path d="M60.0024 19.3379C58.8873 19.3379 57.9236 19.0979 57.1113 18.6179C56.299 18.1379 55.6713 17.4585 55.2282 16.5797C54.7926 15.6936 54.5747 14.6413 54.5747 13.4228C54.5747 12.2191 54.7926 11.1742 55.2282 10.2881C55.6713 9.39452 56.299 8.70406 57.1113 8.21667C57.9236 7.72929 58.8873 7.4856 60.0024 7.4856C61.1249 7.4856 62.0922 7.72929 62.9046 8.21667C63.7169 8.69667 64.3409 9.38344 64.7766 10.277C65.2122 11.1631 65.4301 12.2117 65.4301 13.4228C65.4301 14.6339 65.2122 15.6825 64.7766 16.5687C64.3409 17.4548 63.7169 18.1379 62.9046 18.6179C62.0922 19.0979 61.1249 19.3379 60.0024 19.3379ZM60.0024 16.901C60.9329 16.901 61.6418 16.5834 62.1292 15.9484C62.6166 15.3133 62.8602 14.4714 62.8602 13.4228C62.8602 12.3668 62.6202 11.5176 62.1402 10.8751C61.6602 10.2253 60.9476 9.90036 60.0024 9.90036C59.0867 9.90036 58.3815 10.2216 57.8867 10.8641C57.3919 11.5065 57.1446 12.3594 57.1446 13.4228C57.1446 14.4714 57.3919 15.3133 57.8867 15.9484C58.3815 16.5834 59.0867 16.901 60.0024 16.901Z" fill="#202833"/>
<path d="M68.5784 19.0721V7.75144H71.1261V10.4321L70.7938 9.67883C70.7938 9.34652 70.9525 9.01421 71.2701 8.6819C71.5876 8.34221 72.0122 8.0579 72.5439 7.82898C73.083 7.60006 73.6811 7.4856 74.3384 7.4856C75.0916 7.4856 75.7858 7.63329 76.4208 7.92867C77.0559 8.22406 77.5654 8.71513 77.9494 9.4019C78.3334 10.0813 78.5254 11.0007 78.5254 12.1601V19.0721H75.9778V12.6917C75.9778 11.6505 75.7451 10.9268 75.2799 10.5207C74.8221 10.1071 74.2719 9.90036 73.6294 9.90036C73.179 9.90036 72.7618 9.98529 72.3778 10.1551C72.0011 10.3176 71.6984 10.5982 71.4694 10.997C71.2405 11.3958 71.1261 11.9459 71.1261 12.6474V19.0721H68.5784Z" fill="#202833"/>
<path d="M86.6804 19.3378C85.654 19.3378 84.7678 19.1052 84.022 18.64C83.2761 18.1748 82.7001 17.4991 82.294 16.6129C81.8952 15.7268 81.6958 14.656 81.6958 13.4006C81.6958 12.1748 81.9063 11.1224 82.3272 10.2437C82.7481 9.35752 83.3278 8.67814 84.0663 8.20552C84.8047 7.72552 85.654 7.48552 86.614 7.48552C87.249 7.48552 87.8066 7.5926 88.2866 7.80675C88.774 8.01352 89.1543 8.26829 89.4275 8.57106V4.25106L91.9752 3.0769V19.072H89.4275V18.208C89.2207 18.4812 88.8736 18.7397 88.3863 18.9834C87.9063 19.2197 87.3376 19.3378 86.6804 19.3378ZM87.0349 16.9009C87.633 16.9009 88.1204 16.8086 88.497 16.624C88.8736 16.432 89.1838 16.1551 89.4275 15.7932V11.008C89.2503 10.7643 88.9696 10.5206 88.5856 10.2769C88.2016 10.0258 87.67 9.90029 86.9906 9.90029C86.1192 9.90029 85.4472 10.2031 84.9746 10.8086C84.502 11.4068 84.2656 12.2708 84.2656 13.4006C84.2656 14.0948 84.3727 14.704 84.5869 15.2283C84.801 15.7526 85.1112 16.1624 85.5173 16.4578C85.9309 16.7532 86.4367 16.9009 87.0349 16.9009Z" fill="#202833"/>
<path d="M99.7537 19.3379C98.9636 19.3379 98.251 19.1976 97.6159 18.917C96.9882 18.6364 96.4897 18.2191 96.1205 17.6653C95.7513 17.1041 95.5667 16.4062 95.5667 15.5717C95.5667 14.7004 95.7882 13.9914 96.2313 13.445C96.6743 12.8911 97.2393 12.485 97.926 12.2265C98.6202 11.9607 99.3402 11.8277 100.086 11.8277C100.662 11.8277 101.175 11.8794 101.626 11.9828C102.076 12.0788 102.501 12.2265 102.9 12.4259V11.7613C102.9 11.2591 102.811 10.8604 102.634 10.565C102.456 10.2622 102.198 10.0481 101.858 9.92252C101.526 9.7896 101.127 9.72313 100.662 9.72313C100.034 9.72313 99.4103 9.82652 98.79 10.0333C98.1771 10.2401 97.6048 10.5207 97.0731 10.8751L96.2977 8.79267C96.8442 8.4456 97.5162 8.14283 98.3137 7.88436C99.1113 7.61852 99.9679 7.4856 100.884 7.4856C101.386 7.4856 101.899 7.53729 102.423 7.64067C102.955 7.73667 103.442 7.93236 103.885 8.22775C104.336 8.51575 104.698 8.94406 104.971 9.51267C105.244 10.0739 105.381 10.8161 105.381 11.7391V19.0721H102.9V18.1859C102.589 18.4813 102.18 18.7471 101.67 18.9834C101.168 19.2197 100.529 19.3379 99.7537 19.3379ZM100.219 17.1004C100.839 17.1004 101.367 16.9859 101.803 16.757C102.246 16.5281 102.612 16.2659 102.9 15.9705V14.5084C102.589 14.3533 102.224 14.2314 101.803 14.1428C101.389 14.0468 100.95 13.9988 100.485 13.9988C99.835 13.9988 99.2627 14.1244 98.7679 14.3754C98.2731 14.6191 98.0257 15.0179 98.0257 15.5717C98.0257 16.0222 98.2177 16.3914 98.6017 16.6794C98.9857 16.9601 99.5248 17.1004 100.219 17.1004Z" fill="#202833"/>
<path d="M112.916 19.072L108.507 7.75134H111.232L113.846 14.9292C113.913 15.1064 113.972 15.2873 114.024 15.472C114.075 15.6566 114.127 15.8818 114.179 16.1477C114.223 15.8818 114.271 15.6566 114.323 15.472C114.382 15.2873 114.445 15.1064 114.511 14.9292L117.103 7.75134H119.806L115.397 19.072H112.916Z" fill="#202833"/>
<path d="M126.521 19.0719V7.75131H129.068V19.0719H126.521ZM123.397 19.0719V16.8344H132.192V19.0719H123.397ZM123.397 9.98885V7.75131H128.182V9.98885H123.397ZM127.783 6.17839C127.363 6.17839 127.004 6.0307 126.709 5.73531C126.421 5.43254 126.277 5.0707 126.277 4.64977C126.277 4.22885 126.421 3.87439 126.709 3.58639C127.004 3.291 127.363 3.14331 127.783 3.14331C128.219 3.14331 128.581 3.291 128.869 3.58639C129.164 3.87439 129.312 4.22885 129.312 4.64977C129.312 5.0707 129.164 5.43254 128.869 5.73531C128.581 6.0307 128.219 6.17839 127.783 6.17839Z" fill="#202833"/>
<path d="M140.834 19.3378C139.808 19.3378 138.922 19.1052 138.176 18.64C137.43 18.1748 136.854 17.4991 136.448 16.6129C136.049 15.7268 135.85 14.656 135.85 13.4006C135.85 12.1748 136.06 11.1224 136.481 10.2437C136.902 9.35752 137.482 8.67814 138.22 8.20552C138.959 7.72552 139.808 7.48552 140.768 7.48552C141.403 7.48552 141.961 7.5926 142.441 7.80675C142.928 8.01352 143.308 8.26829 143.582 8.57106V4.25106L146.129 3.0769V19.072H143.582V18.208C143.375 18.4812 143.028 18.7397 142.54 18.9834C142.06 19.2197 141.492 19.3378 140.834 19.3378ZM141.189 16.9009C141.787 16.9009 142.274 16.8086 142.651 16.624C143.028 16.432 143.338 16.1551 143.582 15.7932V11.008C143.404 10.7643 143.124 10.5206 142.74 10.2769C142.356 10.0258 141.824 9.90029 141.145 9.90029C140.273 9.90029 139.601 10.2031 139.129 10.8086C138.656 11.4068 138.42 12.2708 138.42 13.4006C138.42 14.0948 138.527 14.704 138.741 15.2283C138.955 15.7526 139.265 16.1624 139.671 16.4578C140.085 16.7532 140.591 16.9009 141.189 16.9009Z" fill="#202833"/>
</svg>
