<svg width="24" height="24" viewBox="0 0 24 24" fill="none" xmlns="http://www.w3.org/2000/svg">
<rect width="24" height="24" rx="3" fill="#202833"/>
<path d="M4.5 19.358V4.84091H7.48295V8.42045L6.97159 8.13636C7.11364 7 7.45455 6.10985 7.99432 5.46591C8.54356 4.82197 9.23485 4.5 10.0682 4.5C10.8068 4.5 11.3939 4.72254 11.8295 5.16761C12.2652 5.61269 12.5682 6.09091 12.7386 6.60227C13.0701 6.07197 13.5009 5.58901 14.0313 5.15341C14.571 4.7178 15.2386 4.5 16.0341 4.5C17.1705 4.5 18.0322 4.9072 18.6193 5.72159C19.2064 6.53598 19.5 7.96591 19.5 10.0114V19.358H16.517V10.4943C16.517 9.5 16.4271 8.77557 16.2472 8.32102C16.0672 7.85701 15.7121 7.625 15.1818 7.625C14.8504 7.625 14.5616 7.73864 14.3153 7.96591C14.0786 8.19318 13.8939 8.52462 13.7614 8.96023C13.6288 9.38636 13.5625 9.9072 13.5625 10.5227V19.358H10.5795V10.4091C10.5795 9.82197 10.5322 9.32007 10.4375 8.90341C10.3428 8.48674 10.196 8.16951 9.99716 7.9517C9.7983 7.7339 9.53788 7.625 9.21591 7.625C8.86553 7.625 8.55777 7.73864 8.29261 7.96591C8.03693 8.19318 7.83807 8.52462 7.69602 8.96023C7.55398 9.38636 7.48295 9.9072 7.48295 10.5227V19.358H4.5Z" fill="#F89B13"/>
</svg>
