<svg width="24" height="24" viewBox="0 0 24 24" fill="none" xmlns="http://www.w3.org/2000/svg">
<path fill-rule="evenodd" clip-rule="evenodd" d="M20.3121 1C21.7956 1 23 2.20441 23 3.68787V20.3121C23 21.7956 21.7956 23 20.3121 23H3.68787C2.20441 23 1 21.7956 1 20.3121V3.68787C1 2.20441 2.20437 1 3.68787 1L20.3121 1ZM9.40121 19.2421C15.2423 19.2421 18.4362 14.402 18.4362 10.2072C18.4362 10.0689 18.4362 9.93058 18.4296 9.79888C19.0486 9.35111 19.5886 8.79135 20.0166 8.15258C19.4503 8.40283 18.8379 8.57406 18.1925 8.65308C18.8511 8.25794 19.3515 7.63893 19.5886 6.8948C18.9762 7.25698 18.2979 7.52042 17.5735 7.66527C16.994 7.04626 16.1708 6.66431 15.2555 6.66431C13.5038 6.66431 12.0814 8.08675 12.0814 9.83841C12.0814 10.0887 12.1078 10.3323 12.167 10.5628C9.52633 10.4311 7.18857 9.16673 5.62129 7.24383C5.35127 7.71138 5.19323 8.25794 5.19323 8.83746C5.19323 9.9372 5.75299 10.9118 6.60905 11.4781C6.08883 11.465 5.60152 11.3201 5.17347 11.083V11.1225C5.17347 12.6635 6.26664 13.941 7.72199 14.2373C7.45859 14.3098 7.17543 14.3493 6.88564 14.3493C6.6815 14.3493 6.48397 14.3296 6.2864 14.29C6.68812 15.5544 7.86026 16.4697 9.24974 16.4961C8.16319 17.3456 6.79348 17.8526 5.30521 17.8526C5.04839 17.8526 4.79814 17.8395 4.54789 17.8065C5.93737 18.7153 7.61001 19.2421 9.40121 19.2421Z" fill="#28313E"/>
</svg>
